<svg xmlns="http://www.w3.org/2000/svg" viewBox="0 0 512 512"><title>Artboard 114</title><g id="Book_Coffee" data-name="Book &amp; Coffee"><path d="M106.66658,320h362.6668a21.33329,21.33329,0,0,1,21.33329,21.33328v.00016a21.33328,21.33328,0,0,1-21.3333,21.33328l-106.6667,0V448l106.66672.00006a21.33328,21.33328,0,0,1,21.33328,21.33328v0a21.33329,21.33329,0,0,1-21.33329,21.33329H106.66658a85.33325,85.33325,0,0,1-85.33325-85.33325v-.00017A85.33325,85.33325,0,0,1,106.66658,320Z" style="fill:#0784ff"/><path d="M33.16927,448c14.78125,25.39844,41.99219,42.66667,73.4974,42.66667H277.33333V448Z" style="fill:#005eee"/><path d="M426.66667,362.66667a42.66667,42.66667,0,1,0,0,85.33333H256a42.66663,42.66663,0,0,1-42.66663-42.66662v-.00009A42.66662,42.66662,0,0,1,256,362.66667Z" style="fill:#dfe5ff"/><rect x="170.66667" y="277.33333" width="149.33333" height="42.66667" rx="21.33331" ry="21.33331" style="fill:#002755"/><path d="M170.66667,85.33333H320A42.66667,42.66667,0,0,1,362.66667,128V234.66667a64,64,0,0,1-64,64H192a64,64,0,0,1-64-64V128A42.66667,42.66667,0,0,1,170.66667,85.33333Z" style="fill:#33527d"/><path d="M192,298.66667a64,64,0,0,0,64-64V128a42.66667,42.66667,0,0,0-42.66667-42.66667H320A42.66667,42.66667,0,0,1,362.66667,128V234.66667a64,64,0,0,1-64,64Z" style="fill:#163969"/><rect x="320" y="149.33333" width="42.66667" height="42.66667" rx="21.33331" ry="21.33331" style="fill:#002755"/><rect x="320" y="234.66667" width="42.66667" height="42.66667" rx="21.33331" ry="21.33331" style="fill:#002755"/><path d="M362.66667,256H341.33333a21.33334,21.33334,0,0,1,0-42.66667h21.33334a21.33333,21.33333,0,1,0,0-42.66666H341.33333a21.33333,21.33333,0,0,1,0-42.66667h21.33334a64,64,0,1,1,0,128Z" style="fill:#33527d"/><path d="M320,21.33333H256a21.33272,21.33272,0,0,0-21.33333,21.33334,21.33333,21.33333,0,1,0,0,42.66666H256A21.33355,21.33355,0,0,0,277.33333,64H320a21.33333,21.33333,0,0,0,0-42.66667Z" style="fill:#ccd4ff"/><rect x="362.66667" y="64" width="42.66667" height="21.33333" rx="10.66666" ry="10.66666" style="fill:#ccd4ff"/><circle cx="437.33333" cy="74.66667" r="10.66667" style="fill:#ccd4ff"/><rect x="256" y="362.66667" width="128" height="21.33333" rx="10.66666" ry="10.66666" style="fill:#a4b1ff"/><rect x="64" y="341.33333" width="85.33333" height="42.66667" rx="21.33331" ry="21.33331" style="fill:#5cbeff"/><rect x="213.33333" y="405.33333" width="170.66667" height="21.33333" rx="10.66666" ry="10.66666" style="fill:#ccd4ff"/><path d="M469.33333,320H256a85.33333,85.33333,0,0,0,0,170.66667H469.33333a21.33333,21.33333,0,1,0,0-42.66667H256a42.66666,42.66666,0,1,1,0-85.33333H469.33333a21.33333,21.33333,0,1,0,0-42.66667Z" style="fill:#079cff"/><ellipse cx="64" cy="405.33333" rx="21.33333" ry="42.66667" style="fill:#ffea21"/><rect x="341.33333" y="128" width="42.66667" height="21.33333" rx="10.66666" ry="10.66666" style="fill:#adb9ca"/><rect x="320" y="213.33333" width="42.66667" height="21.33333" rx="10.66666" ry="10.66666" style="fill:#002755"/><rect x="149.33333" y="106.66667" width="85.33333" height="21.33333" rx="10.66666" ry="10.66666" style="fill:#5e7599"/><rect x="277.33333" y="106.66667" width="64" height="21.33333" rx="10.66666" ry="10.66666" style="fill:#33527d"/><rect x="149.33333" y="149.33333" width="42.66667" height="106.66667" rx="21.33331" ry="21.33331" style="fill:#5e7599"/><rect x="149.33333" y="149.33333" width="42.66667" height="63.99998" rx="21.33331" ry="21.33331" style="fill:#adb9ca"/><rect x="256" y="42.66667" width="64" height="21.33333" rx="10.66666" ry="10.66666" style="fill:#a4b1ff"/><circle cx="266.66667" cy="74.66667" r="10.66667" style="fill:#a4b1ff"/><circle cx="245.33333" cy="32" r="10.66667" style="fill:#eff2ff"/><circle cx="224" cy="53.33333" r="10.66667" style="fill:#eff2ff"/></g></svg>