<svg id="filled_outline" data-name="filled outline" xmlns="http://www.w3.org/2000/svg" viewBox="0 0 340 340"><path d="M91.626,263.128H32.618c-15.24.519-15.267,22.519,0,23.049H91.626a11.525,11.525,0,0,0,0-23.049Z" style="fill:#e29d97"/><path d="M91.626,217.153H32.618c-15.24.52-15.267,22.52,0,23.049H91.626a11.525,11.525,0,0,0,0-23.049Z" style="fill:#e29d97"/><path d="M80.582,240.2H21.574c-15.24.52-15.267,22.52,0,23.05H80.582a11.525,11.525,0,0,0,0-23.05Z" style="fill:#e29d97"/><path d="M91.626,263.128H48.964l25.148.108a9.283,9.283,0,0,1,8.516,5.687A9.745,9.745,0,0,1,75.781,282.1c-1.486.485-11.773,1.6-13.5,1.858a1.177,1.177,0,0,0-.388,2.215h29.73C106.882,285.65,106.876,263.652,91.626,263.128Z" style="fill:#c1716d"/><path d="M80.582,240.2H62.956c10.226.061,13.086,14.212,3.287,17.807-5.937,1.869-9.06,1.537-17.425,2.78a1.174,1.174,0,0,0,.146,2.339c.192.014,25.165.082,25.34.124h6.278C95.831,262.729,95.84,240.729,80.582,240.2Z" style="fill:#c1716d"/><path d="M82.665,222.912a8.9,8.9,0,0,1-4.842,11.662c-4.566,2.043-13.849,2.523-18.808,3.289a1.174,1.174,0,0,0,.146,2.339c.838,0,30.463,0,32.465,0,15.247-.522,15.259-22.522,0-23.049H77.615A11.979,11.979,0,0,1,82.665,222.912Z" style="fill:#c1716d"/><path d="M220.979,287.434H160.636a48.664,48.664,0,0,1-48.664-48.664V182.95a2.6,2.6,0,0,1,2.6-2.6H269.642V238.77A48.664,48.664,0,0,1,220.979,287.434Z" style="fill:#fff"/><path d="M292.84,253.3h.482c-11.9-.369-11.89-17.635,0-18h-.252c21.96-.941,23.575-36.684-1.546-36.953H269.642v-18h21.882C339.753,181.026,339.526,251.287,292.84,253.3Z" style="fill:#d0cde2"/><path d="M159.36,12.756s-29.094,34.715-12.429,64.439c4.547,7.764,20.747,31.437,7.652,58.391C176.5,120.875,189.894,88.7,169.555,61.943,161.913,51.965,153.706,35.168,159.36,12.756Z" style="fill:#f7c8c3"/><path d="M228.5,61.547c-.569.158-25.482,23.789-9.221,41.146,2.777,3.137,16.011,19.464,5.222,34.6,15.527-7.608,31.1-26.826,12.536-45.413C230.634,85.726,223.763,75.368,228.5,61.547Z" style="fill:#f7c8c3"/><path d="M269.642,180.348H242.531v53.543s-.933,53.543-41.055,53.543h19.5a48.664,48.664,0,0,0,48.663-48.664Z" style="fill:#d0cde2"/><path d="M10.922,288.375c2.473,5.1,10.515,17.557,31.116,20.7a11.625,11.625,0,0,1,6.039,2.805c9.238,8.638,16.537,15.345,29.99,15.367H261.934a33.594,33.594,0,0,0,22.443-8.6l7.546-6.772a11.625,11.625,0,0,1,6.039-2.805c20.6-3.14,28.643-15.6,31.116-20.7a1.525,1.525,0,0,0-1.366-2.2H12.288A1.525,1.525,0,0,0,10.922,288.375Z" style="fill:#c7e2ff"/><path d="M329.078,288.375a1.525,1.525,0,0,0-1.366-2.2H286.341c-1.912,5.247-3.559,12.581-17.4,18.479a20.131,20.131,0,0,0-8.585,7.075c-3.847,5.525-11.248,13.847-21.754,15.514h23.333a33.594,33.594,0,0,0,22.443-8.6l7.546-6.772a11.625,11.625,0,0,1,6.039-2.805C318.564,305.932,326.605,293.477,329.078,288.375Z" style="fill:#92b4dd"/><path d="M6.775,283.81c-3.278,3.06,6.7,25.924,36.934,29.521,10.621,9.837,18.872,17.931,34.358,17.913H261.934c15.5.012,23.748-8.089,34.357-17.914,30.227-3.607,40.2-26.42,36.934-29.521A4,4,0,0,0,330,282.177H248.834a52.666,52.666,0,0,0,24.808-44.664V183.091h17.882c17.711-.363,33.209,14.456,32.467,32.262-.43,18.209-13.934,32.5-30.809,32.69-6.507-.351-6.359-9.835.14-10,11.316-.147,20.179-9.814,20.662-22.613.694-12.483-10.087-22.548-22.46-22.34h-5.238c-5.267.1-5.252,7.907,0,8,5.927-.182,11.9-.136,16.115,4.4,7.77,7.887,2.225,24.935-9.645,24.569-16.168,1.156-16.581,24.167-.516,25.944,33.991,1.254,53.222-44.14,28.7-68.728a40.705,40.705,0,0,0-29.417-12.182c-6.608.035-167.08-.025-179.552,0a4,4,0,0,0-4,4v58.422a52.666,52.666,0,0,0,24.808,44.664H105.194c5.349-8.987-.836-21.513-11.1-22.834A15.558,15.558,0,0,0,94.026,244c18.682-3.395,16.733-30.31-2.4-30.845H65.233a4.123,4.123,0,0,0-3.358,1.766c-.216.313-1.914,2.769-4.037,5.716a7.792,7.792,0,0,1-3.865,2.848,4,4,0,0,0-2.516,5.067c2.722,6.18,10.373.285,12.873-3.24,1.176-1.632,2.209-3.1,2.952-4.157H91.625c9.922.306,9.962,14.73,0,15.05-6.816-.007-51.137,0-59.007,0-9.934-.312-9.953-14.732,0-15.05H47.9c5.277-.132,5.273-7.869,0-8H32.618c-11.708-.23-19.49,13.3-13.444,23.255-17.354,3.036-17.394,27.521-.069,30.628a15.579,15.579,0,0,0-.056,15.141H10A4,4,0,0,0,6.775,283.81Zm109.2-46.3V183.091h149.67v54.422a44.714,44.714,0,0,1-44.663,44.664H160.636A44.714,44.714,0,0,1,115.972,237.513ZM14.049,251.727a7.533,7.533,0,0,1,7.525-7.524H80.582c9.937.316,9.949,14.73,0,15.048H62.122c-5.275.134-5.275,7.867,0,8,.978-.044,19.9.121,20.331-.123h9.172a7.525,7.525,0,1,1,0,15.05H32.618c-9.122-.154-10.234-13.207-1.325-14.926H43.956c2.923,4.044,6.183,8.992,11.286,10.39l1.708.569a4,4,0,1,0,2.528-7.59c-2.086-.6-4.255-1.482-5.526-3.333-.7-.8-4.939-7.052-5.856-7.41a4.283,4.283,0,0,0-2.13-.625h-12.4a8.283,8.283,0,0,0-2.814,0H21.574A7.533,7.533,0,0,1,14.049,251.727Zm18.569,38.45H323.437c-3.791,5.539-12.177,13.694-29.237,15.331a4,4,0,0,0-2.29,1c-9.318,8.245-16.4,16.881-29.977,16.731H78.066A29.555,29.555,0,0,1,58.3,315.673l-10.2-9.16a4,4,0,0,0-2.29-1c-17.06-1.637-25.446-9.792-29.237-15.331Z" style="fill:#2f313f"/><path d="M163.962,61.009c.968,1.609,2.315,3.319,4.328,3.218a4.026,4.026,0,0,0,3.252-6.325c-1.27-2.43-3.9-4.182-6.49-2.444A4,4,0,0,0,163.962,61.009Z" style="fill:#2f313f"/><path d="M161.18,9.194a4,4,0,0,0-4.886.993c-1.26,1.5-30.663,37.2-12.852,68.966,4.4,7.632,19.68,29.4,7.6,54.574a4,4,0,0,0,5.737,5.2,71.548,71.548,0,0,0,18.278-18.969,51.874,51.874,0,0,0,4.406-48.856,4,4,0,1,0-7.374,3.1c7.186,16.469,2.925,35.644-9.1,48.365,4.411-47.995-33.147-45.507-9.486-93.339a58.07,58.07,0,0,0,3.4,17.908,4,4,0,1,0,7.531-2.7,51.9,51.9,0,0,1-1.2-30.709A4,4,0,0,0,161.18,9.194Z" style="fill:#2f313f"/><path d="M230.721,58.223a4,4,0,0,0-4.866.319c-9.394,8.256-23.772,28.32-10.948,45.166,3.44,4.429,15.583,16.917,6.333,31.263a4,4,0,0,0,5,5.922c18.291-8.846,34.056-31.285,13.567-51.9-8.227-7.911-10.76-16.71-7.526-26.152A4,4,0,0,0,230.721,58.223Zm3.54,36.539c10.6,9.764,8.8,23.68-1.664,32.109.859-14.307-8-23.94-11.325-28.009-6.4-8.408-2.7-18.011,1.879-24.916C224.029,81.412,227.784,88.534,234.261,94.762Z" style="fill:#2f313f"/></svg>